# xmcd
# 
# Track frame offsets:
#     150
#     16363
#     33367
#     52537
#     65665
#     83666
#     95175
#     113581
#     128717
#     145589
#     163485
#     182204
#     199114
#     213504
#     231738
# 
# Disc length: 3287
# 
# Revision: 0
# Processed by: cddbd v1.5.2PL0 Copyright (c) Steve Scherf et al.
# Submitted via: BonkEnc v1.0
# 
DISCID=d40cd50f
DTITLE=Vince Gill - Souvenirs
DYEAR=1995
DGENRE=Country
TTITLE0=Never Alone
TTITLE1=Never Knew Lonely
TTITLE2=When I Call Your Name
TTITLE3=Liza Jane
TTITLE4=Look At Us
TTITLE5=Take Your Memory With You
TTITLE6=Pocket Full Of Gold
TTITLE7=The Heart Won't Lie (with Reba McEntire)
TTITLE8=Don't Let Our Love Start Slippin' Away
TTITLE9=I Still Believe In You
TTITLE10=No Future In The Past
TTITLE11=Tryin' To Get Over You
TTITLE12=One More Last Chance
TTITLE13=I Can't Tell You Why
TTITLE14=I Will Always Love You (with Dolly Parton)
EXTD=
EXTT0=
EXTT1=
EXTT2=
EXTT3=
EXTT4=
EXTT5=
EXTT6=
EXTT7=
EXTT8=
EXTT9=
EXTT10=
EXTT11=
EXTT12=
EXTT13=
EXTT14=
PLAYORDER=
